<?xml version="1.0" encoding="utf-8"?>
<!-- Generator: Adobe Illustrator 22.1.0, SVG Export Plug-In . SVG Version: 6.00 Build 0)  -->
<svg version="1.1" id="Layer_1" xmlns="http://www.w3.org/2000/svg" xmlns:xlink="http://www.w3.org/1999/xlink" x="0px" y="0px"
	 viewBox="0 0 1175.3 1158.4" style="enable-background:new 0 0 1175.3 1158.4;" xml:space="preserve">
<style type="text/css">
	.st0{fill:#1D1D1B;}
</style>
<path class="st0" d="M1037.9,579.2c0-80.3,59.9-146.6,137.4-156.8c-13.6-50.2-33.5-97.8-58.8-141.9c-62,47.6-151.2,43.1-208-13.7
	s-61.3-146-13.7-208C850.7,33.5,803.1,13.6,752.9,0c-10.1,77.5-76.4,137.4-156.8,137.4S449.5,77.5,439.3,0
	c-50.2,13.6-97.8,33.5-141.9,58.8c47.6,62,43.1,151.2-13.7,208c-56.8,56.8-146,61.3-208,13.7c-25.4,44.1-45.3,91.7-58.8,141.9
	c77.5,10.1,137.4,76.4,137.4,156.8S94.4,725.8,16.9,736c13.6,50.2,33.5,97.8,58.8,141.9c62-47.6,151.2-43.1,208,13.7
	s61.3,146,13.7,208c44.1,25.4,91.7,45.3,141.9,58.8c10.1-77.5,76.5-137.4,156.8-137.4s146.6,59.9,156.8,137.4
	c50.2-13.6,97.8-33.5,141.9-58.8c-47.6-62-43.1-151.2,13.7-208c56.8-56.8,146-61.3,208-13.7c25.4-44.1,45.3-91.7,58.8-141.9
	C1097.8,725.8,1037.9,659.5,1037.9,579.2z"/>
</svg>
